<svg xmlns="http://www.w3.org/2000/svg" width="46" height="46" viewBox="0 0 48 48">
  <path fill="#fbc02d" d="M43.6 20.5H42V20H24v8h11.3C33.1 32.5 29 35 24 35c-6.1 0-11-4.9-11-11s4.9-11 11-11c2.8 0 5.4 1.1 7.3 2.9l5.7-5.7C33.5 6.5 28.9 4 24 4 12.95 4 4 12.95 4 24s8.95 20 20 20c11 0 20-8 20-20 0-1.3-.14-2.7-.4-3.5z"/>
  <path fill="#e53935" d="M6.3 14.7l6.6 4.8C14.5 16 18.9 13 24 13c2.8 0 5.4 1.1 7.3 2.9l5.7-5.7C33.5 6.5 28.9 4 24 4 16.4 4 9.8 8.4 6.3 14.7z"/>
  <path fill="#4caf50" d="M24 44c4.8 0 9.3-1.8 12.7-4.7l-5.9-5c-2.1 1.6-4.7 2.5-6.8 2.5-5 0-9.2-3.3-10.7-7.8l-6.6 5.1C9.8 39.6 16.4 44 24 44z"/>
  <path fill="#1565c0" d="M43.6 20.5H42V20H24v8h11.3c-1.1 3.2-4.3 6-8.3 6-5 0-9.2-3.3-10.7-7.8l-6.6 5.1C12.9 39.3 18.1 44 24 44c11 0 20-8 20-20 0-1.3-.14-2.7-.4-3.5z"/>
</svg>